<?xml version="1.0" encoding="UTF-8"?>
<svg id="Affiliate_Logo_Here" xmlns="http://www.w3.org/2000/svg" version="1.1" viewBox="0 0 781.84 321.37">
  <!-- Generator: Adobe Illustrator 29.0.1, SVG Export Plug-In . SVG Version: 2.1.0 Build 192)  -->
  <g>
    <g>
      <path d="M524.3,236.6v-1.6h180.13v1.6h-180.13Z"/>
      <path d="M77.4,236.6v-1.6h180.13v1.6H77.4Z"/>
    </g>
    <g>
      <path d="M278.43,252.1v-35.44h10.66c5.78,0,12.29,1.16,12.29,7.61,0,4.99-4.78,7.35-7.04,8.09v.21c4.78.21,9.61,2.94,9.61,8.61,0,4.67-3.36,10.92-13.39,10.92h-12.13ZM287.98,231.51c3.78,0,7.88-1.47,7.88-5.93,0-4.15-2.78-5.51-7.88-5.51h-4.15v11.45h4.15ZM289.14,248.74c3.99,0,8.45-1.42,8.45-6.93s-4.15-7.09-8.98-7.09h-4.78v12.55c0,1.26.74,1.47,1.68,1.47h3.62Z"/>
      <path d="M312.66,252.1v-35.44h20.58v3.99h-15.17v10.5h13.55v4.04h-13.55v11.24c0,1.37.68,1.68,1.63,1.68h14.75l-.58,3.99h-21.21Z"/>
      <path d="M343.16,252.1v-35.44h5.41v29.77c0,1.37.68,1.68,1.63,1.68h14.75l-.58,3.99h-21.21Z"/>
      <path d="M384.53,252.83c-11.5,0-18.43-7.09-18.43-18.43,0-10.66,8.24-18.48,20.16-18.48,4.41,0,8.93.79,12.55,2.68l-2,4.3c-2.68-1.63-6.72-2.94-10.71-2.94-9.61,0-13.81,5.88-13.81,13.65,0,8.24,3.52,15.33,14.07,15.33,2.47,0,4.88-.42,6.56-.95v-11.87h5.41v14.65c-3.99,1.16-8.87,2.05-13.81,2.05Z"/>
      <path d="M409.63,252.1v-35.44h5.41v35.44h-5.41Z"/>
      <path d="M426.63,239.39v-22.74h5.41v22c0,5.51,2.15,10.24,8.45,10.24,6.88,0,8.82-4.67,8.82-10.92v-21.32h5.09v21.74c0,9.45-4.99,14.44-14.12,14.44s-13.65-4.62-13.65-13.44Z"/>
      <path d="M498.3,252.1v-26.73c0-1.26,0-2.52.05-3.78h-.31c-.32.95-.95,2.52-1.58,4.15l-10.55,26.36h-3.26l-10.55-25.99c-.52-1.31-1.1-2.57-1.42-3.94h-.26c.05.47.05,1.31.05,4.3v25.62h-4.46v-35.39l7.46-.11.42.26,9.4,24.1c.74,1.84,1.1,2.89,1.42,4.46h.21c.31-1.42.89-2.89,1.58-4.62l9.5-23.94.42-.26,7.14.11v35.39h-5.25Z"/>
    </g>
  </g>
  <g>
    <g>
      <rect x="125.99" y="156.49" width="3.87" height="24.58"/>
      <path d="M156.6,181.47l-14.48-18.54c-.42-.54-.94-1.24-1.2-1.9h-.19c0,.52.04,1.53.04,2.48v17.55h-3.24v-24.47l4.14-.29.3.18,12.18,16.02c.38.51,1.51,1.89,1.7,2.58h.15c0-.65-.04-1.89-.04-2.76v-15.84h3.24v24.98h-2.6Z"/>
      <polygon points="176.65 159.29 176.65 181.07 172.78 181.07 172.78 159.29 163.53 159.29 163.53 156.49 185.86 156.49 185.86 159.29 176.65 159.29"/>
      <path d="M205.39,181.07h-15.19v-24.58h14.74v2.77h-10.87v7.29h9.7v2.8h-9.7v7.79c0,.94.49,1.17,1.16,1.17h10.56l-.41,2.77Z"/>
      <path d="M226.46,181.26l-.26-.19-10.34-12.74h1.31c3.24,0,6.32-1.28,6.32-4.88,0-3.83-2.79-4.59-6.43-4.59h-2.26v22.22h-3.87v-24.58h7.52c4.21,0,9.21.91,9.21,6.3,0,3.75-2.9,6.01-6.09,6.81l9.59,11.36-4.7.3Z"/>
      <path d="M254.56,181.47l-14.48-18.54c-.41-.54-.94-1.24-1.2-1.9h-.19c0,.52.04,1.53.04,2.48v17.55h-3.24v-24.47l4.14-.29.3.18,12.18,16.02c.38.51,1.5,1.89,1.69,2.58h.15c0-.65-.04-1.89-.04-2.76v-15.84h3.23v24.98h-2.59Z"/>
      <path d="M274.07,163.12c-.41-1.05-.82-2.15-.91-3.13h-.15c-.11.98-.64,2.22-1.05,3.2l-3.23,7.76h8.31l-2.97-7.83ZM281.17,181.25l-.3-.18-2.89-7.69h-10.19l-3.19,7.69-.3.18-2.97-.29,10.79-25.13h2.93l9.97,25.13-3.84.29Z"/>
      <polygon points="296.28 159.29 296.28 181.07 292.41 181.07 292.41 159.29 283.16 159.29 283.16 156.49 305.49 156.49 305.49 159.29 296.28 159.29"/>
      <rect x="309.9" y="156.49" width="3.87" height="24.58"/>
      <path d="M331.68,158.46c-3.91,0-8.3,2.18-8.3,10.34s4.09,10.19,8.35,10.19,8.35-2.4,8.35-10.19-4.21-10.34-8.39-10.34M331.72,181.66c-7.45,0-12.56-4.41-12.56-12.86s6.24-13,12.56-13c6.76,0,12.56,3.97,12.56,13,0,7.42-5.64,12.86-12.56,12.86"/>
      <path d="M368.74,181.47l-14.47-18.54c-.41-.54-.94-1.24-1.2-1.9h-.19c0,.52.04,1.53.04,2.48v17.55h-3.23v-24.47l4.13-.29.3.18,12.18,16.02c.37.51,1.5,1.89,1.69,2.58h.15c0-.65-.04-1.89-.04-2.76v-15.84h3.24v24.98h-2.6Z"/>
      <path d="M388.26,163.12c-.41-1.05-.83-2.15-.9-3.13h-.14c-.11.98-.65,2.22-1.06,3.2l-3.23,7.76h8.31l-2.97-7.83ZM395.36,181.25l-.3-.18-2.9-7.69h-10.18l-3.2,7.69-.3.18-2.97-.29,10.79-25.13h2.93l9.97,25.13-3.84.29Z"/>
      <path d="M448.47,181.26l-.27-.19-10.33-12.74h1.31c3.24,0,6.32-1.28,6.32-4.88,0-3.83-2.78-4.59-6.43-4.59h-2.26v22.22h-3.87v-24.58h7.52c4.22,0,9.22.91,9.22,6.3,0,3.75-2.9,6.01-6.1,6.81l9.59,11.36-4.7.3Z"/>
      <path d="M472.69,181.07h-15.19v-24.58h14.73v2.77h-10.86v7.29h9.7v2.8h-9.7v7.79c0,.94.49,1.17,1.16,1.17h10.56l-.41,2.77Z"/>
      <path d="M488.5,163.12c-.41-1.05-.82-2.15-.9-3.13h-.15c-.11.98-.64,2.22-1.06,3.2l-3.23,7.76h8.31l-2.97-7.83ZM495.62,181.25l-.3-.18-2.9-7.69h-10.18l-3.2,7.69-.3.18-2.96-.29,10.79-25.13h2.93l9.96,25.13-3.83.29Z"/>
      <path d="M518.81,181.07h-15.19v-24.58h3.87v20.65c0,.94.49,1.17,1.16,1.17h10.57l-.42,2.77Z"/>
      <path d="M548.39,181.07h-15.19v-24.58h14.74v2.77h-10.87v7.29h9.71v2.8h-9.71v7.79c0,.94.49,1.17,1.17,1.17h10.56l-.41,2.77Z"/>
      <path d="M559.37,181.58c-2.45,0-4.78-.55-6.66-1.53l1.13-2.8c1.19.73,3.41,1.57,5.75,1.57,2.62,0,5.67-1.13,5.67-4.04,0-2.52-2.22-3.71-4.32-4.59l-3.08-1.31c-2.56-1.09-4.86-2.83-4.86-6.04,0-4.37,4.29-6.96,8.7-6.96,2.36,0,4.32.55,6.09,1.46l-1.32,2.95c-1.09-.77-3.12-1.64-5.18-1.64-2.93,0-4.7,1.24-4.7,3.2s1.69,2.91,3.98,3.94l3.34,1.45c2.52,1.1,5.04,3.21,5.04,6.42,0,4.99-4.62,7.94-9.58,7.94"/>
      <polygon points="584.71 159.29 584.71 181.07 580.84 181.07 580.84 159.29 571.59 159.29 571.59 156.49 593.92 156.49 593.92 159.29 584.71 159.29"/>
      <path d="M604.48,163.12c-.42-1.05-.82-2.15-.9-3.13h-.14c-.11.98-.64,2.22-1.06,3.2l-3.23,7.76h8.31l-2.97-7.83ZM611.6,181.25l-.3-.18-2.9-7.69h-10.19l-3.19,7.69-.3.18-2.97-.29,10.79-25.13h2.93l9.96,25.13-3.83.29Z"/>
      <polygon points="626.7 159.29 626.7 181.07 622.82 181.07 622.82 159.29 613.57 159.29 613.57 156.49 635.9 156.49 635.9 159.29 626.7 159.29"/>
      <path d="M655.43,181.07h-15.19v-24.58h14.75v2.77h-10.87v7.29h9.7v2.8h-9.7v7.79c0,.94.49,1.17,1.16,1.17h10.57l-.42,2.77Z"/>
      <path d="M418.68,181.07h-15.19v-24.58h3.88v20.65c0,.94.49,1.17,1.16,1.17h10.56l-.41,2.77Z"/>
    </g>
    <path d="M121.69,139.76c12.06,0,21.03-3.3,28.04-2.99l6.6-19.07h-2.27c-6.6,12.17-15.98,19.28-28.55,19.28-19.28,0-33.29-16.49-33.29-37.83,0-23.5,11.54-38.66,30.82-38.66,12.68,0,22.67,6.49,29.07,19.89h2.27l-3.3-21.55h-1.85c-.82,1.55-1.96,2.06-3.61,2.06-2.99,0-9.48-3.2-22.98-3.2-25.77,0-45.15,17.01-45.14,42.06,0,22.48,20.51,40,44.22,40M161.79,137.9h34.01v-2.06c-9.59-.41-11.34-1.85-11.34-9.38v-23.61h43.39v23.61c0,7.53-1.75,8.97-11.34,9.38v2.06h34.02v-2.06c-9.59-.41-11.34-1.85-11.34-9.38v-49.28c0-7.53,1.75-8.97,11.34-9.38v-2.06h-34.02v2.06c9.59.41,11.34,1.86,11.34,9.38v22.57s-43.39,0-43.39,0v-22.57c0-7.53,1.75-8.97,11.34-9.38v-2.06h-34.01v2.06c9.59.41,11.34,1.86,11.34,9.38v49.27c0,7.53-1.75,8.97-11.33,9.38v2.06ZM257.33,137.9h36.08v-2.06c-12.27-.41-13.4-1.34-13.4-10.41v-21.34c3.92,1.55,9.17,2.48,14.02,2.58l5.36,7.11c13.5,18.15,22.16,25.15,34.22,25.15v-1.96c-5.36-1.24-8.45-6.6-21.13-23.5l-6.7-8.97c8.56-2.99,15.36-9.38,15.36-20,0-8.76-5.57-19.28-29.79-19.28-5.57,0-16.49.52-34.02.52v2.06c9.59.41,11.34,1.86,11.34,9.38v49.28c0,7.53-1.75,8.97-11.34,9.38v2.06ZM280.01,102.23v-34.02c2.58-.31,5.05-.41,7.63-.41,17.63,0,21.65,8.97,21.65,16.91,0,10.31-6.7,18.25-21.75,18.25-2.78,0-5.36-.21-7.52-.72M338.04,137.9h34.01v-2.06c-9.59-.41-11.34-1.85-11.34-9.38v-49.27c0-7.53,1.75-8.97,11.34-9.38v-2.06h-34.01v2.06c9.59.41,11.34,1.86,11.34,9.38v49.27c0,7.53-1.75,8.97-11.34,9.38v2.06ZM380.3,119.76l3.09,18.86h1.75c1.03-1.65,2.47-2.16,3.92-2.16,3.71,0,9.89,3.3,18.86,3.3,14.43,0,24.53-8.25,24.53-20.51,0-25.46-39.99-24.33-39.99-41.34,0-5.98,4.54-11.34,13.3-11.34s16.08,4.23,21.65,15.57h2.27l-2.68-17.21h-1.75c-.62,1.34-1.65,1.85-3.09,1.85-3.6,0-8.87-2.89-16.9-2.89-12.68,0-21.75,7.11-21.75,18.25,0,22.88,39.38,23.3,39.38,41.54,0,7.42-5.88,13.4-15.36,13.4-9.07,0-19.48-5.56-24.94-17.31h-2.27ZM439.67,84.19h2.26c5.05-11.86,10.21-14.84,26.7-14.85h2.47v57.11c0,7.53-1.75,8.97-11.34,9.38v2.06h34.01v-2.06c-9.58-.41-11.34-1.85-11.34-9.38v-57.11s1.85,0,1.85,0c17.01,0,22.26,2.99,27.32,14.84h2.27l-2.99-19.48h-1.65c-1.34,1.44-2.89,2.06-8.04,2.06h-48.86c-5.16,0-6.7-.62-8.04-2.06h-1.65l-2.99,19.48ZM517.8,137.89h34.01v-2.06c-9.59-.41-11.34-1.85-11.34-9.38v-49.27c0-7.53,1.75-8.97,11.34-9.38v-2.06h-34.01v2.06c9.59.41,11.34,1.86,11.34,9.38v49.27c0,7.53-1.75,8.97-11.33,9.38v2.06ZM558.62,137.89h35.15c13.3,0,19.79.31,25.97.82l6.5-18.14h-2.27c-7.22,12.37-13.6,14.64-29.07,14.64h-2.27c-9.59,0-11.34-1.85-11.34-9.38v-23.92s1.44,0,1.44,0c22.88,0,25.05.93,26.9,11.23h2.06v-24.12h-2.06c-1.44,8.76-4.12,10-24.74,10h-3.6v-30.52s10.1,0,10.1,0c14.84,0,20.41,2.37,25.46,13.3h2.27l-3.09-16.08h-57.41v2.06c9.59.41,11.34,1.86,11.34,9.38v49.27c0,7.53-1.75,8.97-11.34,9.38v2.06ZM630.46,69.96c0-3.4,2.37-5.98,6.7-5.98,4.94,0,8.14,3.5,8.14,9.17,0,7.22-5.05,13.2-13.81,16.91l-.93-1.96c6.49-3.4,10-7.22,9.69-13.71-1.34.72-2.79,1.13-4.23,1.13-3.3,0-5.57-2.16-5.57-5.57M652.21,119.75l3.09,18.86h1.75c1.03-1.65,2.47-2.16,3.91-2.16,3.71,0,9.9,3.3,18.86,3.3,14.43,0,24.53-8.25,24.53-20.51,0-25.46-39.99-24.33-39.99-41.34,0-5.98,4.54-11.34,13.3-11.34s16.08,4.23,21.64,15.57h2.27l-2.68-17.21h-1.75c-.62,1.34-1.65,1.85-3.09,1.85-3.61,0-8.87-2.89-16.91-2.89-12.68,0-21.75,7.11-21.75,18.25,0,22.88,39.37,23.3,39.37,41.54,0,7.43-5.88,13.4-15.36,13.4s-19.48-5.56-24.94-17.32h-2.27Z"/>
  </g>
</svg>